<?xml version="1.0" standalone="no"?>
<!DOCTYPE svg PUBLIC "-//W3C//DTD SVG 20010904//EN"
 "http://www.w3.org/TR/2001/REC-SVG-20010904/DTD/svg10.dtd">
<svg version="1.0" xmlns="http://www.w3.org/2000/svg"
 width="852.000000pt" height="852.000000pt" viewBox="0 0 852.000000 852.000000"
 preserveAspectRatio="xMidYMid meet">
<metadata>
Created by potrace 1.11, written by Peter Selinger 2001-2013
</metadata>
<g transform="translate(0.000000,852.000000) scale(0.100000,-0.100000)"
fill="#000000" stroke="none">
<path d="M4200 7725 c-41 -30 -93 -67 -115 -82 -22 -15 -98 -70 -170 -121 -71
-51 -139 -99 -150 -106 -11 -8 -66 -48 -122 -88 -57 -40 -153 -109 -215 -152
-62 -44 -131 -93 -153 -109 -50 -36 -483 -343 -548 -389 -26 -18 -55 -39 -65
-46 -9 -7 -80 -57 -157 -112 -77 -55 -149 -106 -160 -114 -11 -8 -81 -58 -155
-110 -74 -52 -142 -100 -150 -106 -160 -114 -737 -524 -755 -537 -13 -10 -77
-55 -142 -101 -238 -168 -608 -431 -619 -440 -5 -5 -20 -14 -31 -21 -38 -20
-53 -41 -43 -59 5 -9 93 -271 195 -582 103 -311 189 -572 192 -580 3 -8 7 -19
9 -25 1 -5 241 -728 533 -1605 l530 -1595 2371 0 c1573 0 2371 3 2374 10 3 8
354 1064 453 1365 14 41 29 84 33 95 5 11 225 675 491 1475 265 800 483 1457
484 1460 2 3 -60 50 -138 105 -78 55 -255 181 -394 280 -139 99 -354 252 -479
340 -124 88 -279 198 -344 245 -66 47 -190 135 -275 195 -86 61 -164 116 -173
123 -19 14 -162 116 -622 442 -173 123 -426 303 -562 399 -631 449 -839 596
-846 598 -4 1 -41 -23 -82 -52z"/>
</g>
</svg>
